<svg width="161" height="41" viewBox="0 0 161 41" fill="none" xmlns="http://www.w3.org/2000/svg">
<path d="M59.0699 29.9583V15.5823H53.4779V13.0383H67.7579V15.5823H62.1659V29.9583H59.0699ZM67.8062 29.9583V20.9343C67.8062 20.4223 67.7902 19.9023 67.7582 19.3743C67.7422 18.8463 67.7022 18.3343 67.6382 17.8383H70.5422L70.8782 21.1503H70.3982C70.5582 20.3503 70.8222 19.6863 71.1902 19.1583C71.5742 18.6303 72.0382 18.2383 72.5822 17.9823C73.1262 17.7263 73.7182 17.5983 74.3582 17.5983C74.6462 17.5983 74.8782 17.6143 75.0542 17.6463C75.2302 17.6623 75.4062 17.7023 75.5822 17.7663L75.5582 20.4063C75.2542 20.2783 74.9902 20.1983 74.7662 20.1663C74.5582 20.1343 74.2942 20.1183 73.9742 20.1183C73.2862 20.1183 72.7022 20.2623 72.2222 20.5503C71.7582 20.8383 71.4062 21.2383 71.1662 21.7503C70.9422 22.2623 70.8302 22.8463 70.8302 23.5023V29.9583H67.8062ZM81.8149 30.1983C80.7589 30.1983 79.8309 29.9503 79.0309 29.4543C78.2309 28.9423 77.6069 28.2143 77.1589 27.2703C76.7109 26.3263 76.4869 25.1983 76.4869 23.8863C76.4869 22.5743 76.7109 21.4543 77.1589 20.5263C77.6069 19.5823 78.2309 18.8623 79.0309 18.3663C79.8309 17.8543 80.7589 17.5983 81.8149 17.5983C82.8389 17.5983 83.7349 17.8543 84.5029 18.3663C85.2869 18.8623 85.8069 19.5343 86.0629 20.3823H85.7989L86.0629 17.8383H88.9429C88.8949 18.3343 88.8469 18.8383 88.7989 19.3503C88.7669 19.8623 88.7509 20.3663 88.7509 20.8623V29.9583H85.7749L85.7509 27.4623H86.0389C85.7829 28.2943 85.2629 28.9583 84.4789 29.4543C83.6949 29.9503 82.8069 30.1983 81.8149 30.1983ZM82.6549 27.8943C83.5989 27.8943 84.3589 27.5663 84.9349 26.9103C85.5109 26.2383 85.7989 25.2303 85.7989 23.8863C85.7989 22.5423 85.5109 21.5423 84.9349 20.8863C84.3589 20.2303 83.5989 19.9023 82.6549 19.9023C81.7109 19.9023 80.9509 20.2303 80.3749 20.8863C79.7989 21.5423 79.5109 22.5423 79.5109 23.8863C79.5109 25.2303 79.7909 26.2383 80.3509 26.9103C80.9269 27.5663 81.6949 27.8943 82.6549 27.8943ZM92.8337 29.9583V20.0943H90.5057V17.8383H93.6737L92.8337 18.6063V16.7583C92.8337 15.2543 93.2177 14.1183 93.9857 13.3503C94.7697 12.5823 95.9137 12.1983 97.4177 12.1983C97.7697 12.1983 98.1377 12.2223 98.5217 12.2703C98.9217 12.3183 99.2657 12.4063 99.5537 12.5343V14.8863C99.3457 14.8063 99.0977 14.7423 98.8097 14.6943C98.5217 14.6463 98.2417 14.6223 97.9697 14.6223C97.5537 14.6223 97.1777 14.7023 96.8417 14.8623C96.5217 15.0223 96.2657 15.2703 96.0737 15.6063C95.8977 15.9263 95.8097 16.3583 95.8097 16.9023V18.3663L95.3777 17.8383H99.0017V20.0943H95.8337V29.9583H92.8337ZM105.416 30.1983C104.36 30.1983 103.432 29.9503 102.632 29.4543C101.832 28.9423 101.208 28.2143 100.76 27.2703C100.312 26.3263 100.088 25.1983 100.088 23.8863C100.088 22.5743 100.312 21.4543 100.76 20.5263C101.208 19.5823 101.832 18.8623 102.632 18.3663C103.432 17.8543 104.36 17.5983 105.416 17.5983C106.44 17.5983 107.336 17.8543 108.104 18.3663C108.888 18.8623 109.408 19.5343 109.664 20.3823H109.4L109.664 17.8383H112.544C112.496 18.3343 112.448 18.8383 112.4 19.3503C112.368 19.8623 112.352 20.3663 112.352 20.8623V29.9583H109.376L109.352 27.4623H109.64C109.384 28.2943 108.864 28.9583 108.08 29.4543C107.296 29.9503 106.408 30.1983 105.416 30.1983ZM106.256 27.8943C107.2 27.8943 107.96 27.5663 108.536 26.9103C109.112 26.2383 109.4 25.2303 109.4 23.8863C109.4 22.5423 109.112 21.5423 108.536 20.8863C107.96 20.2303 107.2 19.9023 106.256 19.9023C105.312 19.9023 104.552 20.2303 103.976 20.8863C103.4 21.5423 103.112 22.5423 103.112 23.8863C103.112 25.2303 103.392 26.2383 103.952 26.9103C104.528 27.5663 105.296 27.8943 106.256 27.8943ZM115.619 29.9583V12.2943H118.619V29.9583H115.619ZM127.493 35.3343C126.373 35.3343 125.357 35.2143 124.445 34.9743C123.549 34.7343 122.749 34.3663 122.045 33.8703L122.693 31.7103C123.157 32.0143 123.637 32.2623 124.133 32.4543C124.629 32.6463 125.141 32.7903 125.669 32.8863C126.197 32.9823 126.733 33.0303 127.277 33.0303C128.397 33.0303 129.229 32.7503 129.773 32.1903C130.333 31.6463 130.613 30.8623 130.613 29.8383V26.9343H130.853C130.597 27.7663 130.077 28.4303 129.293 28.9263C128.525 29.4223 127.637 29.6703 126.629 29.6703C125.541 29.6703 124.589 29.4303 123.773 28.9503C122.973 28.4543 122.349 27.7503 121.901 26.8383C121.453 25.9263 121.229 24.8543 121.229 23.6223C121.229 22.3903 121.453 21.3263 121.901 20.4303C122.349 19.5183 122.973 18.8223 123.773 18.3423C124.589 17.8463 125.541 17.5983 126.629 17.5983C127.653 17.5983 128.541 17.8463 129.293 18.3423C130.061 18.8223 130.573 19.4783 130.829 20.3103L130.613 20.1663L130.853 17.8383H133.757C133.693 18.3343 133.645 18.8383 133.613 19.3503C133.581 19.8623 133.565 20.3663 133.565 20.8623V29.4783C133.565 31.3823 133.045 32.8303 132.005 33.8223C130.981 34.8303 129.477 35.3343 127.493 35.3343ZM127.445 27.3663C128.405 27.3663 129.165 27.0463 129.725 26.4063C130.301 25.7503 130.589 24.8223 130.589 23.6223C130.589 22.4223 130.301 21.5023 129.725 20.8623C129.165 20.2223 128.405 19.9023 127.445 19.9023C126.469 19.9023 125.693 20.2223 125.117 20.8623C124.541 21.5023 124.253 22.4223 124.253 23.6223C124.253 24.8223 124.541 25.7503 125.117 26.4063C125.693 27.0463 126.469 27.3663 127.445 27.3663ZM141.487 30.1983C140.431 30.1983 139.503 29.9503 138.703 29.4543C137.903 28.9423 137.279 28.2143 136.831 27.2703C136.383 26.3263 136.159 25.1983 136.159 23.8863C136.159 22.5743 136.383 21.4543 136.831 20.5263C137.279 19.5823 137.903 18.8623 138.703 18.3663C139.503 17.8543 140.431 17.5983 141.487 17.5983C142.511 17.5983 143.407 17.8543 144.175 18.3663C144.959 18.8623 145.479 19.5343 145.735 20.3823H145.471L145.735 17.8383H148.615C148.567 18.3343 148.519 18.8383 148.471 19.3503C148.439 19.8623 148.423 20.3663 148.423 20.8623V29.9583H145.447L145.423 27.4623H145.711C145.455 28.2943 144.935 28.9583 144.151 29.4543C143.367 29.9503 142.479 30.1983 141.487 30.1983ZM142.327 27.8943C143.271 27.8943 144.031 27.5663 144.607 26.9103C145.183 26.2383 145.471 25.2303 145.471 23.8863C145.471 22.5423 145.183 21.5423 144.607 20.8863C144.031 20.2303 143.271 19.9023 142.327 19.9023C141.383 19.9023 140.623 20.2303 140.047 20.8863C139.471 21.5423 139.183 22.5423 139.183 23.8863C139.183 25.2303 139.463 26.2383 140.023 26.9103C140.599 27.5663 141.367 27.8943 142.327 27.8943ZM151.666 29.9583V20.9343C151.666 20.4223 151.65 19.9023 151.618 19.3743C151.602 18.8463 151.562 18.3343 151.498 17.8383H154.402L154.738 21.1503H154.258C154.418 20.3503 154.682 19.6863 155.05 19.1583C155.434 18.6303 155.898 18.2383 156.442 17.9823C156.986 17.7263 157.578 17.5983 158.218 17.5983C158.506 17.5983 158.738 17.6143 158.914 17.6463C159.09 17.6623 159.266 17.7023 159.442 17.7663L159.418 20.4063C159.114 20.2783 158.85 20.1983 158.626 20.1663C158.418 20.1343 158.154 20.1183 157.834 20.1183C157.146 20.1183 156.562 20.2623 156.082 20.5503C155.618 20.8383 155.266 21.2383 155.026 21.7503C154.802 22.2623 154.69 22.8463 154.69 23.5023V29.9583H151.666Z" fill="#233348"/>
<ellipse cx="20.5827" cy="20.3574" rx="20.5827" ry="20.3574" fill="#458FF6"/>
<path d="M19.3965 30.9652V15.3912H13.3385V12.6352H28.8085V15.3912H22.7505V30.9652H19.3965Z" fill="white"/>
</svg>
